<svg width="144" height="144" fill="none" xmlns="http://www.w3.org/2000/svg"><defs><filter id="a" x="-.734" y="-.425" width="144.033" height="144.033" filterUnits="userSpaceOnUse" color-interpolation-filters="sRGB"><feFlood flood-opacity="0" result="BackgroundImageFix"/><feColorMatrix in="SourceAlpha" values="0 0 0 0 0 0 0 0 0 0 0 0 0 0 0 0 0 0 127 0" result="hardAlpha"/><feOffset/><feGaussianBlur stdDeviation="2.393"/><feComposite in2="hardAlpha" operator="out" k2="-1" k3="1"/><feColorMatrix values="0 0 0 0 0.0039216 0 0 0 0 0.75294 0 0 0 0 0.99608 0 0 0 0.25 0"/><feBlend in2="BackgroundImageFix" result="effect_dropShadow_1"/><feColorMatrix in="SourceAlpha" values="0 0 0 0 0 0 0 0 0 0 0 0 0 0 0 0 0 0 127 0" result="hardAlpha"/><feOffset/><feGaussianBlur stdDeviation="13.294"/><feComposite in2="hardAlpha" operator="out" k2="-1" k3="1"/><feColorMatrix values="0 0 0 0 0.0039216 0 0 0 0 0.75294 0 0 0 0 0.99608 0 0 0 0.4 0"/><feBlend in2="effect_dropShadow_1" result="effect_dropShadow_2"/><feBlend in="SourceGraphic" in2="effect_dropShadow_2" result="shape"/><feColorMatrix in="SourceAlpha" values="0 0 0 0 0 0 0 0 0 0 0 0 0 0 0 0 0 0 127 0" result="hardAlpha"/><feOffset dy=".798"/><feGaussianBlur stdDeviation="1.329"/><feComposite in2="hardAlpha" operator="arithmetic" k2="-1" k3="1"/><feColorMatrix values="0 0 0 0 1 0 0 0 0 1 0 0 0 0 1 0 0 0 0.25 0"/><feBlend in2="shape" result="effect_innerShadow_3"/><feColorMatrix in="SourceAlpha" values="0 0 0 0 0 0 0 0 0 0 0 0 0 0 0 0 0 0 127 0" result="hardAlpha"/><feOffset dy=".798"/><feGaussianBlur stdDeviation="1.329"/><feComposite in2="hardAlpha" operator="arithmetic" k2="-1" k3="1"/><feColorMatrix values="0 0 0 0 0 0 0 0 0 0.4 0 0 0 0 1 0 0 0 0.25 0"/><feBlend in2="effect_innerShadow_3" result="effect_innerShadow_4"/></filter></defs><g filter="url(#a)"><rect x="40.023" y="40.332" rx="12.241" width="62.519" height="62.519" stroke="#FFF" stroke-width="1.749"/><path d="M60.79 78.69l-1.57 5h-6.19l8.04-23.84h7.68l8.05 23.84h-6.2l-1.57-5h-8.24zm21.2-18.84h5.76v23.84h-5.76V59.85zm-17.18 6.01l-2.64 8.45h5.48L65 65.86h-.19z" fill="#000" fill-rule="evenodd"/><path d="M59.22 83.69l1.57-5h8.24l1.57 5h6.2l-8.05-23.84h-7.68l-8.04 23.84h6.19zm2.95-9.38l2.64-8.45H65l2.65 8.45h-5.48zm25.58-14.46h-5.76v23.84h5.76V59.85z" stroke="#FFF" stroke-width="1.312"/></g></svg>