<svg width="144" height="144" fill="none" xmlns="http://www.w3.org/2000/svg"><defs><filter id="a" x="-.27" y="-.425" width="144.033" height="144.033" filterUnits="userSpaceOnUse" color-interpolation-filters="sRGB"><feFlood flood-opacity="0" result="BackgroundImageFix"/><feColorMatrix in="SourceAlpha" values="0 0 0 0 0 0 0 0 0 0 0 0 0 0 0 0 0 0 127 0" result="hardAlpha"/><feOffset/><feGaussianBlur stdDeviation="2.393"/><feComposite in2="hardAlpha" operator="out" k2="-1" k3="1"/><feColorMatrix values="0 0 0 0 0.0039216 0 0 0 0 0.75294 0 0 0 0 0.99608 0 0 0 0.25 0"/><feBlend in2="BackgroundImageFix" result="effect_dropShadow_1"/><feColorMatrix in="SourceAlpha" values="0 0 0 0 0 0 0 0 0 0 0 0 0 0 0 0 0 0 127 0" result="hardAlpha"/><feOffset/><feGaussianBlur stdDeviation="13.294"/><feComposite in2="hardAlpha" operator="out" k2="-1" k3="1"/><feColorMatrix values="0 0 0 0 0.0039216 0 0 0 0 0.75294 0 0 0 0 0.99608 0 0 0 0.4 0"/><feBlend in2="effect_dropShadow_1" result="effect_dropShadow_2"/><feBlend in="SourceGraphic" in2="effect_dropShadow_2" result="shape"/><feColorMatrix in="SourceAlpha" values="0 0 0 0 0 0 0 0 0 0 0 0 0 0 0 0 0 0 127 0" result="hardAlpha"/><feOffset dy=".798"/><feGaussianBlur stdDeviation="1.329"/><feComposite in2="hardAlpha" operator="arithmetic" k2="-1" k3="1"/><feColorMatrix values="0 0 0 0 1 0 0 0 0 1 0 0 0 0 1 0 0 0 0.25 0"/><feBlend in2="shape" result="effect_innerShadow_3"/><feColorMatrix in="SourceAlpha" values="0 0 0 0 0 0 0 0 0 0 0 0 0 0 0 0 0 0 127 0" result="hardAlpha"/><feOffset dy=".798"/><feGaussianBlur stdDeviation="1.329"/><feComposite in2="hardAlpha" operator="arithmetic" k2="-1" k3="1"/><feColorMatrix values="0 0 0 0 0 0 0 0 0 0.4 0 0 0 0 1 0 0 0 0.25 0"/><feBlend in2="effect_innerShadow_3" result="effect_innerShadow_4"/></filter></defs><g filter="url(#a)"><rect x="40.487" y="40.332" rx="12.241" width="62.519" height="62.519" stroke="#FFF" stroke-width="1.749"/><path d="M57.72 49.51c-4.69 0-8.5 3.8-8.5 8.49v27.61c0 4.69 3.81 8.49 8.5 8.49h27.6c4.7 0 8.5-3.8 8.5-8.49V58c0-4.69-3.8-8.49-8.5-8.49h-27.6zm0 1.31h27.6q1.49 0 2.76.53 1.27.52 2.32 1.57 1.06 1.06 1.58 2.33.53 1.26.53 2.75v27.61q0 1.49-.53 2.76-.52 1.27-1.58 2.32-1.05 1.05-2.32 1.57-1.27.53-2.76.53h-27.6q-1.49 0-2.76-.53-1.27-.52-2.32-1.57-1.05-1.05-1.58-2.32-.52-1.27-.52-2.76V58q0-1.49.52-2.75.53-1.27 1.58-2.33 1.05-1.05 2.32-1.57 1.27-.53 2.76-.53z" fill="#FFF" fill-rule="evenodd"/><path d="M71.24 87.65c-4.15-.22-10.71-1.85-10.71-9.4v-8.31c0-1.63 1.16-5.73 5.96-3.5 5.72 2.66 7.49.37 9.95-2.18.24-.24.65-.12.78.19.88 2.16 2.93 2.76 4.23 3.2.17.06.28.23.28.41v10.19c0 2.95-2.62 9.4-10.49 9.4zm10.49-10.49c1.61.65 4.72 1.04 4.38-2.63 0-1.64-.56-2.39-.88-2.68-.12-.11-.22-.26-.22-.43V65.9c0-1.38-.37-5.46-3-7.21-2.3-1.53-3.54-1.46-6.12-2.84-2.84-1.53-9.83-1.75-13.17.98-5.76 4.69-5.47 8.74-5.47 9.61v4.4c0 .06-.01.12-.04.17-1.21 2.84-1.36 6.49 3.32 6.15" stroke="#FFF" stroke-width="1.312"/><path d="M45.29 70.71h52.9" stroke="#FFF" stroke-width="1.312" stroke-linecap="round"/></g></svg>