<svg width="34" height="32" fill="none" xmlns="http://www.w3.org/2000/svg"><path d="M16.544 0c-4.49 0-5.054.02-6.818.096C7.962.176 6.76.444 5.708.84a8.097 8.097 0 00-2.93 1.846A7.78 7.78 0 00.867 5.52C.46 6.536.18 7.7.1 9.4c-.079 1.71-.1 2.254-.1 6.602 0 4.344.02 4.888.1 6.594.082 1.704.36 2.866.769 3.884a7.837 7.837 0 001.908 2.834 8.106 8.106 0 002.929 1.846c1.054.396 2.254.666 4.016.744 1.766.076 2.328.096 6.822.096s5.054-.02 6.82-.096c1.76-.08 2.966-.348 4.018-.744a8.096 8.096 0 002.929-1.846 7.836 7.836 0 001.909-2.834c.407-1.018.686-2.18.769-3.884.079-1.706.1-2.25.1-6.596s-.021-4.89-.1-6.598c-.083-1.702-.362-2.866-.77-3.882a7.78 7.78 0 00-1.908-2.834A8.096 8.096 0 0027.38.84C26.325.444 25.121.174 23.361.096 21.596.02 21.036 0 16.54 0h.004zm-1.483 2.884h1.485c4.417 0 4.94.014 6.684.092 1.613.07 2.49.332 3.073.55.771.29 1.323.638 1.903 1.198.579.56.936 1.092 1.236 1.84.228.562.497 1.41.569 2.97.08 1.686.097 2.192.097 6.462s-.016 4.778-.097 6.464c-.072 1.56-.343 2.406-.569 2.97a4.989 4.989 0 01-1.239 1.838 5.125 5.125 0 01-1.902 1.196c-.58.22-1.456.48-3.071.552-1.743.076-2.267.094-6.684.094s-4.942-.018-6.686-.094c-1.613-.072-2.488-.332-3.07-.552a5.19 5.19 0 01-1.903-1.196 4.988 4.988 0 01-1.241-1.84c-.226-.562-.496-1.41-.569-2.97-.078-1.686-.095-2.192-.095-6.466S3 11.216 3.077 9.53c.075-1.56.343-2.408.571-2.972.3-.746.66-1.28 1.239-1.84a5.132 5.132 0 011.902-1.196c.583-.22 1.458-.48 3.071-.552 1.527-.068 2.118-.088 5.201-.09v.004zM25.377 5.54c-.261 0-.52.05-.76.146-.241.097-.46.238-.644.416-.185.179-.33.39-.43.623a1.865 1.865 0 000 1.47c.1.233.245.444.43.623.184.178.403.32.644.416a2.044 2.044 0 002.163-.416c.373-.36.582-.849.582-1.358 0-.51-.21-.998-.582-1.358a2.02 2.02 0 00-1.404-.562zm-8.83 2.244a8.753 8.753 0 00-3.293.588 8.531 8.531 0 00-2.802 1.773 8.211 8.211 0 00-1.876 2.681 7.985 7.985 0 00-.66 3.175c0 1.09.224 2.17.66 3.174a8.211 8.211 0 001.876 2.682 8.53 8.53 0 002.802 1.773 8.754 8.754 0 003.292.588 8.64 8.64 0 005.923-2.451A8.08 8.08 0 0024.91 16a8.08 8.08 0 00-2.442-5.766 8.64 8.64 0 00-5.923-2.451zm0 2.882a5.68 5.68 0 012.11.406 5.549 5.549 0 011.79 1.156 5.325 5.325 0 011.195 1.73 5.181 5.181 0 010 4.083 5.325 5.325 0 01-1.196 1.73 5.531 5.531 0 01-1.79 1.157 5.68 5.68 0 01-2.11.406 5.612 5.612 0 01-3.9-1.562A5.246 5.246 0 0111.031 16c0-1.415.58-2.771 1.615-3.772a5.612 5.612 0 013.9-1.562z" fill="#fff"/></svg>