<svg width="113" height="132" fill="none" xmlns="http://www.w3.org/2000/svg"><defs><filter id="a" x="5.262" y="15.205" width="107.349" height="115.896" filterUnits="userSpaceOnUse" color-interpolation-filters="sRGB"><feFlood flood-opacity="0" result="BackgroundImageFix"/><feColorMatrix in="SourceAlpha" values="0 0 0 0 0 0 0 0 0 0 0 0 0 0 0 0 0 0 127 0" result="hardAlpha"/><feOffset dy=".661"/><feGaussianBlur/><feComposite in2="hardAlpha" operator="out" k2="-1" k3="1"/><feColorMatrix values="0 0 0 0 0.4 0 0 0 0 0.4 0 0 0 0 0.4 0 0 0 1 0"/><feBlend in2="BackgroundImageFix" result="effect_dropShadow_1"/><feColorMatrix in="SourceAlpha" values="0 0 0 0 0 0 0 0 0 0 0 0 0 0 0 0 0 0 127 0" result="hardAlpha"/><feOffset dx="2.15" dy="2.15"/><feGaussianBlur stdDeviation=".551"/><feComposite in2="hardAlpha" operator="out" k2="-1" k3="1"/><feColorMatrix values="0 0 0 0 0 0 0 0 0 0 0 0 0 0 0 0 0 0 0.47 0"/><feBlend in2="effect_dropShadow_1" result="effect_dropShadow_2"/><feBlend in="SourceGraphic" in2="effect_dropShadow_2" result="shape"/></filter><filter id="c" x="28.724" y="66.75" width="59.529" height="17.305" filterUnits="userSpaceOnUse" color-interpolation-filters="sRGB"><feFlood flood-opacity="0" result="BackgroundImageFix"/><feColorMatrix in="SourceAlpha" values="0 0 0 0 0 0 0 0 0 0 0 0 0 0 0 0 0 0 127 0" result="hardAlpha"/><feOffset dx=".661" dy=".661"/><feGaussianBlur stdDeviation=".276"/><feComposite in2="hardAlpha" operator="out" k2="-1" k3="1"/><feColorMatrix values="0 0 0 0 0 0 0 0 0 0 0 0 0 0 0 0 0 0 0.58 0"/><feBlend in2="BackgroundImageFix" result="effect_dropShadow_1"/><feBlend in="SourceGraphic" in2="effect_dropShadow_1" result="shape"/></filter><linearGradient x1=".006" y1="22.409" x2="88.557" y2="123.154" id="b" gradientUnits="userSpaceOnUse"><stop stop-color="#FFF"/><stop offset="1" stop-color="#C1C1C1"/></linearGradient></defs><g filter="url(#a)"><path d="M56.3 34.41H44.05c-1.53-5.34-5.72-8.55-11.94-8.55-8.71 0-14.64 6.72-14.64 18.58 0 11.91 5.7 18.68 14.75 18.68 8.02 0 12.84-4.5 13-11.56H32.97v-9.07h23.86v7.18c0 15-10.27 24.11-24.67 24.11-16.05 0-26.9-11.2-26.9-29.24 0-18.47 11.59-29.34 26.66-29.34 12.88 0 22.83 7.94 24.38 19.21zM77.93 73H65.88V15.98h22.48c12.96 0 20.44 8 20.44 19.33 0 11.37-7.63 19.2-20.74 19.2H77.93V73zm0-47.16v19h8.18c6.9 0 10.27-3.88 10.27-9.53 0-5.68-3.37-9.47-10.33-9.47h-8.12zM28.96 84.57h-4.39c-.17-1.7-1.51-2.69-3.7-2.69-2.24 0-3.48 1.02-3.48 2.42-.03 1.55 1.55 2.25 3.43 2.68l1.94.46c3.77.85 6.49 2.77 6.49 6.37 0 3.97-3.12 6.49-8.4 6.49-5.25 0-8.6-2.42-8.72-7.1h4.43c.15 2.17 1.86 3.26 4.24 3.26 2.33 0 3.82-1.07 3.84-2.66-.02-1.46-1.33-2.13-3.69-2.71l-2.35-.59c-3.66-.88-5.91-2.71-5.9-5.9-.02-3.93 3.46-6.55 8.2-6.55 4.82 0 8 2.66 8.06 6.52zm9.16-2.45h-6.63v-3.77h17.79v3.77h-6.63V100h-4.53V82.12zm27.47 9.9V78.35h4.57v14.06c0 4.73-3.59 7.89-8.97 7.89-5.4 0-8.98-3.16-8.98-7.89V78.35h4.58v13.67c0 2.47 1.75 4.25 4.4 4.25 2.66 0 4.4-1.78 4.4-4.25zm26.6-2.87c0 6.77-3.99 10.85-10.59 10.85h-7.67V78.35h7.74c6.53 0 10.52 4.06 10.52 10.8zm3.39-10.8h4.57V100h-4.57V78.35zm-17.07 3.92v13.8h2.9c4.07 0 6.22-2.09 6.22-6.92 0-4.81-2.15-6.88-6.21-6.88h-2.91zm-22.02 22.78c5.74 0 10.14 4.04 10.14 11.12 0 7.08-4.4 11.12-10.14 11.12-5.77 0-10.13-4.07-10.13-11.12 0-7.08 4.36-11.12 10.13-11.12zm0 18.2c3.32 0 5.5-2.49 5.5-7.08s-2.18-7.07-5.5-7.07c-3.33 0-5.49 2.48-5.49 7.07s2.16 7.08 5.49 7.08z" fill="url(#b)" fill-rule="evenodd"/></g><g filter="url(#c)"><path d="M59.05 71.82q-.34-.15-.6-.15-.34.08-.69.35-.36.27-.7.67-.35.39-.66.88-.3.49-.53 1.01-.23.51-.37 1.03-.13.52-.13.97 0 .71.34 1.15.06.09.13.16.48.48 1.38.58.44-.07.89-.38.44-.31.85-.79.42-.49.77-1.1.35-.61.62-1.3.17-.45.3-.91.06-.24.12-.49.15-.72.15-1.4 0-.68-.14-1.43-.14-.74-.39-1.44-.24-.7-.57-1.31-.33-.6-.69-1.01-.17.03-.36.13-.19.11-.37.24-.17.14-.31.3-.14.15-.18.27.47.76.79 1.35.31.58.5 1.08.19.5.29.96.1.46.16.99-.04-.04-.08-.07-.23-.2-.52-.34zm-30.07 2.15q-.1.61-.1 1.24 0 1.75.84 2.65.08.09.17.17.83.73 2.29.76.32-.16.71-.45.38-.28.78-.66t.81-.84q.4-.46.78-.95-.03-.15-.16-.28-1.02.94-1.88 1.53-.86.59-1.42.72-.09-.02-.17-.05-.38-.16-.63-.64-.3-.59-.3-1.56 0-.26.02-.53.16-2.45 1.79-4.81.27-.38.57-.69.31-.32.64-.54.33-.22.64-.35.32-.12.62-.12.44 0 .61.21.11.14.11.37 0 .33-.26.75-.27.41-.73.79.03.13.08.25.08.19.23.34.15.15.34.23.12.06.25.08.22-.19.41-.43.18-.25.32-.52.13-.27.2-.54.08-.27.08-.54 0-.4-.18-.7-.12-.2-.33-.35-.5-.38-1.4-.38-.29 0-.56.03-.48.06-.94.23-.04.02-.07.03-.69.26-1.31.73-.65.48-1.19 1.14-.54.66-.93 1.45-.39.79-.61 1.67-.07.28-.12.56zm44.62-2.98q-.04.15-.04.23 0 .11.12.22.06.05.12.08.07.04.16.05.05-.1.23-.35.18-.25.41-.53.22-.28.45-.53.24-.26.38-.4-.1-.14-.3-.31-.19-.16-.43-.3-.24-.13-.47-.22-.22-.09-.38-.09-.08.21-.16.47-.07.25-.13.49-.05.23-.08.44-.03.2-.03.32 0 .1.04.23.05.13.11.2zm-2.64 2.1q.07-.27.08-.52-.04-.16-.22-.4-.18-.24-.42-.48-.23-.23-.48-.42-.24-.19-.38-.23-.34.08-.65.29-.13.08-.24.17-.17.15-.31.33-.11.13-.19.28-.11.17-.19.36-.13.31-.14.62v.08q0 .27.06.55.07.28.14.58.07.29.13.61.07.31.07.64-.58.04-1.07.25-.48.21-.83.55-.01.01-.02.01-.16.16-.29.34-.16.21-.27.46-.11.23-.16.47-.05.23-.05.48.05.18.18.36.13.17.31.32.18.14.37.23.2.09.38.11.86-.09 1.42-.55.12-.1.23-.23.08-.08.14-.17.46-.63.46-1.59 0-.16-.01-.26t-.01-.21q0-.08.02-.12.02-.05.11-.09.1-.04.27-.08.18-.05.48-.11.05-.05.05-.17 0-.08-.01-.11-.21 0-.43.01-.21.01-.49.02-.01-.03-.01-.16 0-1.26.27-1.92.21-.48.54-.61.12-.04.26-.04.06 0 .12.02.06.03.11.1 0 .01.01.01.08.12.08.3 0 .08-.04.18-.03.11-.07.21l-.07.19q-.03.09-.03.12.01.13.08.17.04.03.09.03.1 0 .22-.14.12-.15.22-.36.1-.22.18-.48zm11.81-1.19q-.3-.36-.64-.47-.1.05-.51.71-.41.65-.91 1.8-.22.51-.41 1.02-.18.51-.3.97-.13.47-.2.85-.07.37-.07.62.04.17.09.33.05.13.11.25.06.13.14.23.11.13.26.21.16-.09.37-.37.22-.28.51-.69.51-.7.99-1.28.5-.57 1.11-1.16.38-.38.7-.56.33-.18.36-.18-.22.52-.37.89-.14.37-.22.64-.08.27-.1.47-.03.19-.03.35 0 .28.05.54.06.25.19.44.14.18.38.29.24.11.62.11.12 0 .27-.05.15-.05.3-.13.16-.08.3-.17.15-.09.25-.18 0-.07-.03-.15-.03-.09-.08-.12-.09 0-.25.07-.16.06-.3.06-.14 0-.22-.06-.01-.01-.03-.02-.08-.1-.08-.43 0-.4.14-.89.03-.1.06-.19.13-.4.3-.79.22-.48.45-.89.23-.41.41-.65.18-.2.28-.25.1-.04.1-.07-.13-.25-.36-.48-.09-.09-.2-.14-.17-.09-.37-.09-.31 0-.69.22-.38.22-.75.52-.37.31-.71.66-.34.34-.59.6-.12.12-.33.36-.21.24-.45.54-.24.29-.5.59-.25.29-.46.51.04-.3.28-.76.24-.47.54-.98.3-.52.6-1.01.31-.5.45-.85-.05-.15-.11-.28-.13-.27-.34-.51zM36.1 76.51q-.16.62-.23 1 .04.1.17.22t.3.22q.16.11.32.18.17.07.28.08.2-.9.41-1.55.22-.66.53-1.16.12-.19.26-.38.21-.28.48-.53.43-.41 1.04-.85l.04.1q.13.32.37.6.25.3.57.48.02.01.05.03.2-.2.36-.42.17-.22.18-.3-.17-.29-.17-.86 0-.62.24-1.24-.07-.11-.24-.17l-.14-.04q-.1-.02-.21-.02-.2 0-.28.07-.47.7-1.01 1.28-.54.57-1.25 1.2.28-.84.54-1.37.27-.54.62-.95-.07-.1-.22-.2-.14-.09-.32-.18-.19-.1-.38-.16-.2-.07-.38-.09-.16.15-.29.38-.13.23-.3.63-.23.57-.48 1.27-.25.71-.47 1.41-.22.7-.39 1.32zm35.41 5.1q-.01.03-.01.05.09.18.3.35.21.16.49.28.28.13.61.2.33.07.64.07.23 0 .51-.07.29-.06.58-.19t.57-.32q.19-.13.36-.28.07-.08.15-.16.47-.52.84-1.09.37-.56.69-1.22.32-.66.63-1.44.31-.78.66-1.72.19-.53.46-1.23.27-.69.71-1.71-.1-.1-.38-.19-.27-.1-.62-.12-.28.73-.74 1.51-.46.77-1.02 1.4-.25.27-.53.54-.27.27-.53.47-.25.2-.46.34-.2.13-.32.13-.01 0-.02-.01l-.01-.01q-.02-.02-.02-.11 0-.41.2-.92.21-.51.53-1.04.32-.54.74-1.06.42-.51.84-.91t.83-.65q.42-.25.73-.25.22 0 .37.08-.11-.45-.34-.64-.23-.19-.68-.19-.47 0-.96.2t-.97.54q-.48.34-.9.8-.43.46-.74.97-.31.52-.5 1.05-.19.54-.19 1.05 0 .31.08.59.08.28.22.51.14.22.33.37.14.11.3.16.06.02.11.03.17-.07.41-.21.25-.15.49-.32.25-.16.48-.35.23-.19.39-.35-.34 1.24-.79 2.22-.44.98-.98 1.66-.55.68-1.16 1.04-.41.24-.84.32-.22.04-.45.04-.15 0-.25-.01-.03-.01-.06-.01-.07-.02-.14-.06-.1-.05-.21-.13-.11-.08-.27-.22-.06.06-.12.13-.03.04-.04.09zm-23.97-3.62q.32.19.73.23.57-.12 1.08-.37.19-.1.36-.21.43-.26.78-.6.19-.19.36-.41.15-.19.28-.4.28-.44.47-.94.03-.1.06-.19.2-.66.2-1.37 0-.93-.39-1.16-.13-.07-.3-.07-.07 0-.12.01h-.11q-.41-.7-.83-.92-.62 0-1.34.54-.46.33-.85.81-.34.41-.61.86-.03.07-.07.13-.29.53-.44 1.09-.16.57-.16 1.09 0 .83.39 1.39.03.04.05.07.2.26.46.42zm-1.7-4.24q.24-.58.29-1.39-.52-.66-1.12-.74H45q-.43 0-.86.19-.44.2-.85.54t-.77.79q-.17.22-.32.44-.17.26-.31.54-.19.36-.32.74-.05.16-.1.33-.15.55-.15 1.09 0 .46.17.84.13.27.33.5.07.08.15.14.48.43 1.26.52.63-.15 1.32-.66.7-.52 1.29-1.3-.09-.11-.22-.22-.21.22-.48.48-.27.27-.57.5-.29.21-.6.36-.02.02-.05.03-.26.12-.53.15h-.16q-.16 0-.27-.07-.02-.01-.03-.02-.01-.01-.02-.01-.1-.1-.17-.25-.06-.16-.09-.34-.02-.18-.02-.35v-.18q.01-.08.01-.16.84-.33 1.46-.68.63-.35 1.07-.79.19-.2.35-.42.19-.28.32-.6zm19.81 0q.23-.58.29-1.39-.52-.66-1.12-.74h-.01q-.43 0-.87.19-.44.2-.85.54t-.77.79q-.17.22-.31.44-.17.26-.32.54-.18.36-.31.74-.06.16-.1.33-.15.55-.15 1.09 0 .46.17.84.12.27.33.5.07.08.15.14.48.43 1.25.52.63-.15 1.33-.66.7-.52 1.29-1.3-.09-.11-.22-.22l-.48.48q-.27.27-.58.5-.28.21-.59.36-.03.02-.06.03-.26.12-.53.15h-.16q-.16 0-.27-.07-.01-.01-.03-.02 0-.01-.01-.01-.11-.1-.17-.25-.07-.16-.09-.34-.03-.18-.03-.35 0-.09.01-.18.01-.08.01-.16.83-.33 1.46-.68.63-.35 1.06-.79.2-.2.36-.42.19-.28.32-.6zm5.44 2.85q-.02.18-.02.29 0 .28.12.48 0 .01.01.02.13.21.29.35.17.13.32.2.16.06.21.06h.04q.03-.03.03-.09.01-.1.01-.34.01-.29.13-.67.12-.39.26-.75.17-.43.31-.83.14-.39.3-.75.16-.37.37-.71.2-.34.5-.68-.23-.33-.55-.54-.04-.03-.08-.05-.37-.22-.59-.27l-.04.02q-.27.15-.47.42-.22.3-.37.63-.15.31-.24.6t-.12.42q-.13.59-.21 1.01-.09.42-.14.71-.05.29-.07.47zm-13.06.66q-.46.53-.92.69-.26-.04-.4-.19-.18-.19-.18-.55 0-.34.14-.79.14-.44.39-.92.25-.49.56-.97.32-.48.67-.9.36-.41.71-.72.35-.32.66-.45.02.05.02.11v.27q0 .77-.23 1.6-.23.83-.6 1.56-.36.72-.82 1.26zm-9.51-2.5q.2-.35.42-.65.32-.42.77-.8.2-.16.41-.28.29-.17.62-.27.09.15.13.34.04.2.04.54 0 .77-.2 1.45-.2.68-.57 1.21-.33.51-.79.86-.03.02-.05.04-.25.18-.52.3t-.56.19q-.13-.04-.24-.33-.03-.08-.05-.16-.05-.21-.05-.44 0-.26.08-.59.08-.33.22-.69.14-.36.34-.72zm-4.03-1.68q.38-.24.74-.29-.01.19-.05.37-.15.69-.7 1.3-.69.76-1.73 1.28.15-.6.43-1.12.27-.52.6-.92.34-.39.71-.62zm19.81 0q.38-.24.73-.29-.01.19-.05.37-.14.69-.69 1.3-.7.76-1.74 1.28.16-.6.43-1.12.28-.52.61-.92.33-.39.71-.62zm3.03 5.07q-.29.25-.6.38-.16-.12-.22-.28-.04-.09-.04-.19 0-.23.18-.53.19-.3.46-.58.28-.28.59-.48.31-.2.57-.24 0 .34-.12.69-.02.06-.05.13-.12.28-.29.54-.1.15-.22.29-.12.14-.26.27z" fill="#01CAFE" fill-rule="evenodd"/><path d="M28.88 75.21q0-.92.22-1.8t.61-1.67q.39-.79.93-1.45.54-.66 1.19-1.14.65-.49 1.38-.76.73-.26 1.5-.26.9 0 1.4.38.51.38.51 1.05 0 .27-.08.54-.07.27-.2.54-.14.27-.32.52-.19.24-.41.43-.34-.05-.59-.31-.24-.25-.31-.59.46-.38.73-.79.26-.42.26-.75 0-.58-.72-.58-.3 0-.62.12-.31.13-.64.35-.33.22-.64.54-.3.31-.57.69-1.81 2.61-1.81 5.34 0 .97.3 1.56.3.59.8.69.56-.13 1.42-.72.86-.59 1.88-1.53.13.13.16.28-.38.49-.78.95-.41.46-.81.84-.4.38-.78.66-.39.29-.71.45-1.62-.03-2.46-.93-.84-.9-.84-2.65zm6.99 2.3q.07-.38.23-1 .17-.62.39-1.32.22-.7.47-1.41.25-.7.48-1.27.17-.4.3-.63.13-.23.29-.38.18.02.38.09.19.06.38.16.18.09.32.18.15.1.22.2-.35.41-.62.95-.26.53-.54 1.37.71-.63 1.25-1.2.54-.58 1.01-1.28.08-.07.28-.07.18 0 .35.06.17.06.24.17-.24.62-.24 1.24 0 .57.17.86-.01.08-.18.3-.16.22-.36.42-.35-.19-.62-.51-.28-.32-.41-.7-.61.44-1.04.85-.43.41-.74.91t-.53 1.16q-.21.65-.41 1.55-.11-.01-.28-.08-.16-.07-.32-.18-.17-.1-.3-.22-.13-.12-.17-.22zm10.26-5.15q-.05.81-.29 1.39-.23.58-.67 1.02-.44.44-1.07.79-.62.35-1.46.68 0 .08-.01.16v.18q0 .17.02.35.03.18.09.34.07.16.19.26.12.09.3.09.35 0 .69-.15.34-.16.65-.39.3-.23.57-.5.27-.26.48-.48.13.11.22.22-.59.78-1.29 1.3-.69.51-1.32.66-.9-.11-1.41-.66-.5-.56-.5-1.34 0-.54.15-1.09.15-.56.42-1.07.27-.52.63-.98.36-.45.77-.79.41-.34.85-.54.43-.19.86-.19.61.07 1.13.74zm-.9.43q-.36.05-.74.29-.37.23-.71.62-.33.4-.6.92-.28.52-.43 1.12 1.04-.52 1.73-1.28.7-.77.75-1.67zm3.04 5.43q-.74-.07-1.19-.65-.44-.57-.44-1.46 0-.52.16-1.09.15-.56.44-1.09.29-.53.68-.99.39-.48.85-.81.72-.54 1.34-.54.42.22.83.92h.11q.05-.01.12-.01.69 0 .69 1.23 0 .82-.26 1.56-.27.74-.75 1.34-.48.6-1.14 1.01-.66.42-1.44.58zm.67-4.11q-.22.3-.42.65-.2.36-.34.72t-.22.69q-.08.33-.08.59 0 .32.1.6.11.29.24.33.59-.13 1.08-.49.49-.36.84-.9.37-.53.57-1.21.2-.68.2-1.45 0-.34-.04-.54-.04-.19-.13-.34-.57.17-1.03.55-.45.38-.77.8zm9.51-2.44q.26 0 .6.15.34.16.6.41-.06-.53-.16-.99-.1-.46-.29-.96-.19-.5-.5-1.08-.32-.59-.79-1.35.04-.12.18-.27.14-.16.31-.3.18-.13.37-.24.19-.1.36-.13.36.41.69 1.01.33.61.57 1.31.25.7.39 1.44.14.75.14 1.43 0 .68-.15 1.4-.15.71-.42 1.4t-.62 1.3q-.35.61-.77 1.1-.41.48-.85.79-.45.31-.89.38-.9-.1-1.38-.58-.47-.48-.47-1.31 0-.45.13-.97.14-.52.37-1.03.23-.52.53-1.01.31-.49.66-.88.34-.4.7-.67.35-.27.69-.35zm-1.34 6.28q.46-.16.92-.69.46-.54.82-1.26.37-.73.6-1.56.23-.83.23-1.6v-.27q0-.06-.02-.11-.31.13-.66.45-.35.31-.71.72-.35.42-.67.9-.31.48-.56.97-.25.48-.39.92-.14.45-.14.79 0 .65.58.74zm8.83-5.59q-.06.81-.29 1.39-.24.58-.68 1.02-.43.44-1.06.79-.63.35-1.46.68 0 .08-.01.16-.01.09-.01.18 0 .17.03.35.02.18.09.34.07.16.18.26.12.09.3.09.36 0 .69-.15.35-.16.65-.39.31-.23.58-.5l.48-.48q.13.11.22.22-.59.78-1.29 1.3-.7.51-1.33.66-.9-.11-1.4-.66-.5-.56-.5-1.34 0-.54.15-1.09.15-.56.41-1.07.27-.52.63-.98.36-.45.77-.79.41-.34.85-.54.44-.19.87-.19.6.07 1.13.74zm-.91.43q-.35.05-.73.29-.38.23-.71.62-.33.4-.61.92-.27.52-.43 1.12 1.04-.52 1.74-1.28.69-.77.74-1.67zm6.01-.22q-.01.25-.08.52-.08.26-.18.48-.1.21-.22.36-.12.14-.22.14-.15-.01-.17-.2 0-.03.03-.12l.07-.19q.04-.1.07-.21.04-.1.04-.18 0-.18-.09-.31-.08-.12-.23-.12-.52 0-.8.65-.27.66-.27 1.92 0 .13.01.16.28-.01.49-.02.22-.01.43-.01.01.03.01.11 0 .12-.05.17-.3.06-.48.11-.17.04-.27.08-.09.04-.11.09-.02.04-.02.12 0 .11.01.21.01.1.01.26 0 1.1-.6 1.76-.59.67-1.65.78-.18-.02-.38-.11-.19-.09-.37-.23-.18-.15-.31-.32-.13-.18-.18-.36 0-.5.21-.95.21-.45.56-.8.37-.34.85-.56.49-.21 1.07-.25 0-.33-.07-.64-.06-.32-.13-.61-.07-.3-.14-.58-.06-.28-.06-.55 0-.35.14-.7.14-.34.38-.64.23-.29.55-.5.31-.21.65-.29.14.04.38.23.25.19.48.42.24.24.42.48t.22.4zm-4.31 5.96q.31-.13.6-.38.28-.25.48-.56.21-.32.34-.67.12-.35.12-.69-.26.04-.57.24-.31.2-.59.48-.27.28-.46.58-.18.3-.18.53 0 .28.26.47zm4.34-1.64q0-.11.02-.29t.07-.47q.05-.29.14-.71.08-.42.21-1.01.03-.13.12-.42t.24-.6q.15-.33.37-.63.21-.3.51-.44.22.05.59.27.37.22.63.59-.3.34-.5.68-.21.34-.37.71-.16.36-.3.75-.14.4-.31.83-.14.36-.26.75-.12.38-.13.67 0 .24-.01.34 0 .09-.07.09-.05 0-.21-.06-.15-.07-.32-.2-.16-.14-.29-.35-.13-.21-.13-.5zm2.49-5.67q0-.08.04-.23-.06-.07-.11-.2-.04-.13-.04-.23 0-.12.03-.32.03-.21.08-.44.06-.24.13-.49.08-.26.16-.47.16 0 .38.09.23.09.47.22.24.14.43.3.2.17.3.31-.14.14-.38.4-.23.25-.45.53-.23.28-.41.53-.18.25-.23.35-.16-.02-.28-.13-.12-.11-.12-.22zM71.5 81.66q0-.08.05-.14.06-.07.12-.13.16.14.27.22.11.08.21.13.09.05.2.07.1.01.25.01.68 0 1.29-.36t1.16-1.04q.54-.68.98-1.66.45-.98.79-2.22-.16.16-.39.35-.23.19-.48.35-.24.17-.49.32-.24.14-.41.21-.22-.04-.41-.19-.19-.15-.33-.37-.14-.23-.22-.51-.08-.28-.08-.59 0-.51.19-1.05.19-.53.5-1.05.31-.51.74-.97.42-.46.9-.8.48-.34.97-.54t.96-.2q.45 0 .68.19.23.19.34.64-.15-.08-.37-.08-.31 0-.73.25-.41.25-.83.65t-.84.91q-.42.52-.74 1.06-.32.53-.53 1.04-.2.51-.2.92 0 .09.02.11.01.02.03.02.12 0 .32-.13.21-.14.46-.34.26-.2.53-.47.28-.27.53-.54.56-.63 1.02-1.4.46-.78.74-1.51.35.02.62.12.28.09.38.19-.44 1.02-.71 1.71-.27.7-.46 1.23-.35.94-.66 1.72-.31.78-.63 1.44-.32.66-.69 1.22-.37.57-.84 1.09-.23.25-.51.44t-.57.32q-.29.13-.58.19-.28.07-.51.07-.31 0-.64-.07t-.61-.2q-.28-.12-.49-.28-.21-.17-.3-.35zm10.63-10.23q.34.11.64.47.31.35.45.79-.14.35-.45.85-.3.49-.6 1.01-.3.51-.54.98-.24.46-.28.76.21-.22.46-.51.26-.3.5-.59.24-.3.45-.54.21-.24.33-.36.25-.26.59-.6.34-.35.71-.66.37-.3.75-.52.38-.22.69-.22.34 0 .57.23.23.23.36.48 0 .03-.1.07-.1.05-.28.25-.18.24-.41.65-.23.41-.45.89-.21.48-.36.98-.14.49-.14.89 0 .33.08.43.09.08.25.08.14 0 .3-.06.16-.07.25-.07.05.03.08.12.03.08.03.15-.1.09-.25.18-.14.09-.3.17-.15.08-.3.13t-.27.05q-.38 0-.62-.11t-.38-.29q-.13-.19-.19-.44-.05-.26-.05-.54 0-.16.03-.35.02-.2.1-.47.08-.27.22-.64.15-.37.37-.89-.03 0-.36.18-.32.18-.7.56-.61.59-1.11 1.16-.48.58-.99 1.28-.29.41-.51.69-.21.28-.37.37-.27-.15-.4-.44-.13-.28-.2-.58 0-.25.07-.62.07-.38.2-.85.12-.46.3-.97.19-.51.41-1.02.5-1.15.91-1.8.41-.66.51-.71z"/></g></svg>