<svg width="515" height="171" fill="none" xmlns="http://www.w3.org/2000/svg"><g filter="url(#filter0_dii_10_231)"><path fill-rule="evenodd" clip-rule="evenodd" d="M47.238 28.988c-9.934 0-17.988 8.054-17.988 17.989v41.116c0 9.934 8.054 17.988 17.988 17.988h181.754c5.039-10.685 15.909-18.08 28.506-18.08s23.467 7.395 28.507 18.08h182.673c9.935 0 17.988-8.054 17.988-17.988V46.977c0-9.935-8.053-17.989-17.988-17.989H47.238z" fill="url(#paint0_linear_10_231)"/></g><path d="M119.841 78V56.714h17.239V78h-4.108V60.342h-9.024V78h-4.107zm36.503-3.628V78h-14.78V56.714h14.51v3.628h-10.373v5.126h8.964v3.358h-8.964v5.546h10.643zM159.57 78V56.714h9.024c.979 0 1.878.2 2.698.6.819.4 1.529.939 2.129 1.618a7.596 7.596 0 011.439 2.279 6.83 6.83 0 01.509 2.578c0 1.2-.28 2.339-.839 3.418a7.18 7.18 0 01-2.309 2.638c-.979.68-2.138 1.02-3.477 1.02h-5.037V78h-4.137zm4.137-10.763h4.797c.499 0 .949-.14 1.349-.42.4-.28.719-.68.959-1.199.24-.54.36-1.15.36-1.829 0-.74-.14-1.369-.42-1.889-.26-.52-.609-.909-1.049-1.169a2.57 2.57 0 00-1.379-.39h-4.617v6.896zm29.322 7.135V78h-14.78V56.714h14.51v3.628h-10.373v5.126h8.964v3.358h-8.964v5.546h10.643zM196.405 78V56.714h4.107v15.47l10.313-15.47h3.838V78h-4.108V62.71L200.362 78h-3.957zm9.144-22.605c-1.14 0-2.129-.18-2.968-.54-.82-.38-1.459-.9-1.919-1.559a3.91 3.91 0 01-.66-2.218h2.818c0 .58.21 1.099.63 1.558.44.44 1.139.66 2.099.66.939 0 1.629-.21 2.068-.63.44-.42.66-.949.66-1.588h2.848c0 .819-.23 1.558-.69 2.218-.439.66-1.079 1.18-1.918 1.56-.82.359-1.809.539-2.968.539zm29.608 4.947h-6.805V78h-4.108V60.342h-6.805v-3.628h17.718v3.628zM237.95 78V56.714h4.107v15.47l10.313-15.47h3.838V78h-4.107V62.71L241.907 78h-3.957zm47.184-5.486c0 1.199-.31 2.208-.929 3.028-.62.8-1.459 1.409-2.519 1.828-1.039.42-2.178.63-3.417.63h-10.284V56.714h11.393c.999 0 1.859.27 2.578.81a4.919 4.919 0 011.679 2.038 5.82 5.82 0 01-.18 5.486c-.519.92-1.279 1.6-2.278 2.04 1.219.359 2.178 1.009 2.878 1.948.719.94 1.079 2.099 1.079 3.478zm-4.167-.78c0-.54-.11-1.02-.33-1.439-.22-.44-.52-.78-.899-1.02-.36-.26-.78-.39-1.26-.39h-6.355v5.607h6.146c.499 0 .949-.12 1.349-.36.419-.26.749-.6.989-1.019.24-.42.36-.88.36-1.379zm-8.844-11.482v5.366h5.516c.46 0 .879-.11 1.259-.33.38-.22.68-.53.9-.93.239-.399.359-.879.359-1.438 0-.54-.11-1.01-.329-1.41-.2-.399-.48-.709-.84-.929-.34-.22-.729-.33-1.169-.33h-5.696zM295.625 78V56.714h4.107v8.574h2.099l6.326-8.574h4.617l-7.735 10.313L313.373 78h-5.006l-6.596-8.964h-2.039V78h-4.107zm26.367-21.286h4.197L334.014 78h-4.257l-1.979-5.306h-7.435L318.394 78h-4.257l7.855-21.286zm5.037 13.071l-2.938-8.784-3.058 8.784h5.996zm27.218-13.071V78h-4.107v-9.084h-9.654V78h-4.137V56.714h4.137v8.604h9.654v-8.604h4.107zm10.227 0h4.197L376.496 78h-4.257l-1.979-5.306h-7.435L360.876 78h-4.257l7.855-21.286zm5.037 13.071l-2.938-8.784-3.058 8.784h5.996zM392.382 78V60.342h-6.236l-.12 3.597c-.1 2.818-.329 5.147-.689 6.986-.36 1.838-.88 3.288-1.559 4.347-.68 1.04-1.539 1.779-2.579 2.218-1.019.42-2.248.63-3.687.63v-3.568c.739 0 1.379-.16 1.919-.48.539-.32.989-.899 1.349-1.738.38-.84.679-2.029.899-3.568.22-1.539.37-3.528.45-5.966l.21-6.086h14.151V78h-4.108z" fill="#fff"/><g filter="url(#filter1_dii_10_231)"><path d="M257.654 97A22.66 22.66 0 00235 119.654a22.66 22.66 0 0022.654 22.654 22.654 22.654 0 000-45.308z" fill="url(#paint1_linear_10_231)"/></g><path d="M245.255 119.414c6.605-2.877 11.009-4.773 13.21-5.69 6.294-2.617 7.6-3.071 8.453-3.087.188-.003.605.044.878.264.226.186.29.437.322.614.028.176.067.578.035.891-.339 3.582-1.815 12.275-2.566 16.287-.315 1.698-.941 2.267-1.547 2.323-1.316.121-2.315-.87-3.589-1.705-1.993-1.307-3.118-2.12-5.054-3.396-2.238-1.474-.786-2.284.488-3.608.333-.346 6.131-5.618 6.24-6.097.015-.059.029-.282-.106-.4-.131-.118-.325-.077-.467-.046-.202.046-3.384 2.151-9.557 6.316-.903.621-1.72.924-2.457.908-.807-.018-2.364-.458-3.522-.833-1.415-.462-2.545-.706-2.445-1.489.049-.408.612-.825 1.684-1.252z" fill="#fff"/><defs><linearGradient id="paint0_linear_10_231" x1="271.998" y1="23.501" x2="271.998" y2="163.001" gradientUnits="userSpaceOnUse"><stop stop-color="#01C0FE"/><stop offset=".682" stop-color="#0194FE"/></linearGradient><linearGradient id="paint1_linear_10_231" x1="259.044" y1="93.775" x2="259.045" y2="175.76" gradientUnits="userSpaceOnUse"><stop stop-color="#01C0FE"/><stop offset=".682" stop-color="#0194FE"/></linearGradient><filter id="filter0_dii_10_231" x=".983" y=".721" width="513.951" height="133.627" filterUnits="userSpaceOnUse" color-interpolation-filters="sRGB"><feFlood flood-opacity="0" result="BackgroundImageFix"/><feColorMatrix in="SourceAlpha" values="0 0 0 0 0 0 0 0 0 0 0 0 0 0 0 0 0 0 127 0" result="hardAlpha"/><feOffset/><feGaussianBlur stdDeviation="14.134"/><feComposite in2="hardAlpha" operator="out"/><feColorMatrix values="0 0 0 0 0.00392157 0 0 0 0 0.752941 0 0 0 0 0.996078 0 0 0 0.55 0"/><feBlend in2="BackgroundImageFix" result="effect1_dropShadow_10_231"/><feBlend in="SourceGraphic" in2="effect1_dropShadow_10_231" result="shape"/><feColorMatrix in="SourceAlpha" values="0 0 0 0 0 0 0 0 0 0 0 0 0 0 0 0 0 0 127 0" result="hardAlpha"/><feOffset dx=".857" dy="2.57"/><feGaussianBlur stdDeviation="4.283"/><feComposite in2="hardAlpha" operator="arithmetic" k2="-1" k3="1"/><feColorMatrix values="0 0 0 0 1 0 0 0 0 1 0 0 0 0 1 0 0 0 0.25 0"/><feBlend in2="shape" result="effect2_innerShadow_10_231"/><feColorMatrix in="SourceAlpha" values="0 0 0 0 0 0 0 0 0 0 0 0 0 0 0 0 0 0 127 0" result="hardAlpha"/><feOffset dx="-.857" dy="-2.57"/><feGaussianBlur stdDeviation="4.283"/><feComposite in2="hardAlpha" operator="arithmetic" k2="-1" k3="1"/><feColorMatrix values="0 0 0 0 1 0 0 0 0 1 0 0 0 0 1 0 0 0 0.25 0"/><feBlend in2="effect2_innerShadow_10_231" result="effect3_innerShadow_10_231"/></filter><filter id="filter1_dii_10_231" x="206.733" y="68.733" width="101.842" height="101.842" filterUnits="userSpaceOnUse" color-interpolation-filters="sRGB"><feFlood flood-opacity="0" result="BackgroundImageFix"/><feColorMatrix in="SourceAlpha" values="0 0 0 0 0 0 0 0 0 0 0 0 0 0 0 0 0 0 127 0" result="hardAlpha"/><feOffset/><feGaussianBlur stdDeviation="14.134"/><feComposite in2="hardAlpha" operator="out"/><feColorMatrix values="0 0 0 0 0.00392157 0 0 0 0 0.752941 0 0 0 0 0.996078 0 0 0 0.55 0"/><feBlend in2="BackgroundImageFix" result="effect1_dropShadow_10_231"/><feBlend in="SourceGraphic" in2="effect1_dropShadow_10_231" result="shape"/><feColorMatrix in="SourceAlpha" values="0 0 0 0 0 0 0 0 0 0 0 0 0 0 0 0 0 0 127 0" result="hardAlpha"/><feOffset dx=".857" dy="2.57"/><feGaussianBlur stdDeviation="4.283"/><feComposite in2="hardAlpha" operator="arithmetic" k2="-1" k3="1"/><feColorMatrix values="0 0 0 0 1 0 0 0 0 1 0 0 0 0 1 0 0 0 0.25 0"/><feBlend in2="shape" result="effect2_innerShadow_10_231"/><feColorMatrix in="SourceAlpha" values="0 0 0 0 0 0 0 0 0 0 0 0 0 0 0 0 0 0 127 0" result="hardAlpha"/><feOffset dx="-.857" dy="-2.57"/><feGaussianBlur stdDeviation="4.283"/><feComposite in2="hardAlpha" operator="arithmetic" k2="-1" k3="1"/><feColorMatrix values="0 0 0 0 1 0 0 0 0 1 0 0 0 0 1 0 0 0 0.25 0"/><feBlend in2="effect2_innerShadow_10_231" result="effect3_innerShadow_10_231"/></filter></defs></svg>